<svg width="183" height="70" viewBox="0 0 183 70" fill="none" xmlns="http://www.w3.org/2000/svg">
<path d="M92.1999 59.2727H94.082L94.0909 57.2397C97.8995 56.9645 100.083 54.8693 100.092 51.8952C100.083 48.7436 97.4822 47.3054 94.7479 46.6573L94.1619 46.5064L94.1974 41.4371C95.6179 41.6857 96.5323 42.538 96.6744 43.8164H99.8438C99.7905 40.9933 97.571 38.9336 94.2152 38.614L94.2241 36.5455H92.342L92.3331 38.614C89.0039 38.9513 86.6069 40.9933 86.6158 43.9318C86.6158 46.5419 88.4712 48.0423 91.4631 48.8146L92.2621 49.0188L92.2266 54.3899C90.6374 54.1413 89.4922 53.2358 89.3768 51.6289H86.1364C86.2607 54.9581 88.5511 56.9379 92.2088 57.2397L92.1999 59.2727ZM94.1087 54.3899L94.1442 49.516C95.7599 49.9865 96.7898 50.608 96.7987 51.8686C96.7898 53.1825 95.7333 54.1236 94.1087 54.3899ZM92.2798 46.027C91.0547 45.6364 89.9361 44.9883 89.9538 43.7276C89.9627 42.5824 90.8239 41.6946 92.3153 41.4371L92.2798 46.027ZM110.246 38.8182H107.112L102.594 41.7212V44.7397L106.846 42.0231H106.953V57H110.246V38.8182ZM114.863 57H127.327V54.2479H119.408V54.1236L122.542 50.9364C126.076 47.5451 127.052 45.8938 127.052 43.843C127.052 40.7979 124.575 38.5696 120.918 38.5696C117.313 38.5696 114.756 40.8068 114.756 44.2603H117.89C117.89 42.4048 119.062 41.2418 120.873 41.2418C122.604 41.2418 123.892 42.2983 123.892 44.0117C123.892 45.5298 122.968 46.6129 121.175 48.4329L114.863 54.6207V57ZM134.199 54.5142H131.358L131.296 55.5085C131.145 57.9144 130.514 60.3647 130.257 61.4389H132.423C132.849 60.3203 133.835 57.728 134.083 55.4908L134.199 54.5142ZM137.868 57H141.286L149.009 41.6325V38.8182H136.625V41.5703H145.6V41.6946L137.868 57ZM157.951 57.2486C161.796 57.2486 164.477 54.6385 164.477 51.0252C164.477 47.5273 162.044 45.006 158.742 45.006C157.268 45.006 155.963 45.592 155.288 46.391H155.182L155.705 41.5703H163.527V38.8182H152.98L152.03 48.1932L155.004 48.6815C155.617 48.0067 156.771 47.554 157.863 47.5629C159.86 47.5717 161.298 49.0455 161.29 51.1051C161.298 53.1381 159.896 54.5852 157.951 54.5852C156.309 54.5852 154.986 53.5465 154.871 52.055H151.675C151.764 55.0735 154.4 57.2486 157.951 57.2486ZM174.171 57.3462C178.557 57.3551 181.176 53.8928 181.176 47.9268C181.176 41.9964 178.539 38.5696 174.171 38.5696C169.803 38.5696 167.176 41.9876 167.167 47.9268C167.167 53.8839 169.786 57.3462 174.171 57.3462ZM174.171 54.5675C171.907 54.5675 170.487 52.2947 170.496 47.9268C170.505 43.5945 171.916 41.3129 174.171 41.3129C176.435 41.3129 177.847 43.5945 177.856 47.9268C177.856 52.2947 176.444 54.5675 174.171 54.5675Z" fill="#232323"/>
<path d="M86.4091 10.3636V22H87.7273V13.1591H87.8409L91.4773 22H92.75L96.3864 13.1591H96.5V22H97.8182V10.3636H96.1364L92.1818 20.0227H92.0455L88.0909 10.3636H86.4091ZM101.325 25.2727C102.536 25.2727 103.388 24.6307 103.893 23.2727L107.609 13.2955L106.143 13.2727L103.734 20.2273H103.643L101.234 13.2727H99.7798L103.007 22.0455L102.757 22.7273C102.268 24.0568 101.666 24.1818 100.689 23.9318L100.348 25.1136C100.484 25.1818 100.871 25.2727 101.325 25.2727ZM114.065 22H118.27C121.02 22 122.156 20.6591 122.156 18.9091C122.156 17.0682 120.884 16.0682 119.815 16V15.8864C120.815 15.6136 121.702 14.9545 121.702 13.4545C121.702 11.75 120.565 10.3636 118.134 10.3636H114.065V22ZM115.474 20.75V16.7045H118.338C119.861 16.7045 120.815 17.7273 120.815 18.9091C120.815 19.9318 120.111 20.75 118.27 20.75H115.474ZM115.474 15.4773V11.6136H118.134C119.679 11.6136 120.361 12.4318 120.361 13.4545C120.361 14.6818 119.361 15.4773 118.088 15.4773H115.474ZM126.858 22.2045C128.381 22.2045 129.176 21.3864 129.449 20.8182H129.517V22H130.858V16.25C130.858 13.4773 128.744 13.1591 127.631 13.1591C126.312 13.1591 124.812 13.6136 124.131 15.2045L125.403 15.6591C125.699 15.0227 126.398 14.3409 127.676 14.3409C128.909 14.3409 129.517 14.9943 129.517 16.1136V16.1591C129.517 16.8068 128.858 16.75 127.267 16.9545C125.648 17.1648 123.881 17.5227 123.881 19.5227C123.881 21.2273 125.199 22.2045 126.858 22.2045ZM127.062 21C125.994 21 125.222 20.5227 125.222 19.5909C125.222 18.5682 126.153 18.25 127.199 18.1136C127.767 18.0455 129.29 17.8864 129.517 17.6136V18.8409C129.517 19.9318 128.653 21 127.062 21ZM134.646 10.3636H133.305V22H134.646V10.3636ZM139.67 22.2045C141.193 22.2045 141.989 21.3864 142.261 20.8182H142.33V22H143.67V16.25C143.67 13.4773 141.557 13.1591 140.443 13.1591C139.125 13.1591 137.625 13.6136 136.943 15.2045L138.216 15.6591C138.511 15.0227 139.21 14.3409 140.489 14.3409C141.722 14.3409 142.33 14.9943 142.33 16.1136V16.1591C142.33 16.8068 141.67 16.75 140.08 16.9545C138.46 17.1648 136.693 17.5227 136.693 19.5227C136.693 21.2273 138.011 22.2045 139.67 22.2045ZM139.875 21C138.807 21 138.034 20.5227 138.034 19.5909C138.034 18.5682 138.966 18.25 140.011 18.1136C140.58 18.0455 142.102 17.8864 142.33 17.6136V18.8409C142.33 19.9318 141.466 21 139.875 21ZM147.459 16.75C147.459 15.2273 148.402 14.3636 149.686 14.3636C150.93 14.3636 151.686 15.1761 151.686 16.5455V22H153.027V16.4545C153.027 14.2273 151.839 13.1591 150.072 13.1591C148.754 13.1591 147.936 13.75 147.527 14.6364H147.413V13.2727H146.118V22H147.459V16.75ZM159.023 22.1818C160.955 22.1818 162.227 21 162.455 19.4545H161.114C160.864 20.4091 160.068 20.9773 159.023 20.9773C157.432 20.9773 156.409 19.6591 156.409 17.6364C156.409 15.6591 157.455 14.3636 159.023 14.3636C160.205 14.3636 160.909 15.0909 161.114 15.8864H162.455C162.227 14.25 160.841 13.1591 159 13.1591C156.636 13.1591 155.068 15.0227 155.068 17.6818C155.068 20.2955 156.568 22.1818 159.023 22.1818ZM168.074 22.1818C169.847 22.1818 171.142 21.2955 171.551 19.9773L170.256 19.6136C169.915 20.5227 169.125 20.9773 168.074 20.9773C166.5 20.9773 165.415 19.9602 165.352 18.0909H171.688V17.5227C171.688 14.2727 169.756 13.1591 167.938 13.1591C165.574 13.1591 164.006 15.0227 164.006 17.7045C164.006 20.3864 165.551 22.1818 168.074 22.1818ZM165.352 16.9318C165.443 15.5739 166.403 14.3636 167.938 14.3636C169.392 14.3636 170.324 15.4545 170.324 16.9318H165.352Z" fill="#718EBF"/>
<circle cx="35" cy="35" r="35" fill="#FFF5D9"/>
<g clip-path="url(#clip0_152_663)">
<path d="M29.9901 25.625H40.0101L42.1726 23.895C42.9089 23.3075 43.1839 22.3537 42.8726 21.4638C42.5614 20.5738 41.7526 20 40.8126 20H29.1876C28.2476 20 27.4389 20.575 27.1276 21.4638C26.8164 22.3525 27.0914 23.3075 27.8264 23.8937L29.9901 25.625Z" fill="#FFBB38"/>
<path d="M40.1813 27.5H29.8187C26.405 30.8512 23.75 36.7312 23.75 41.5625C23.75 45.7612 25.9725 50 30.9375 50H39.375C43.6162 50 46.25 46.7663 46.25 41.5625C46.25 36.7312 43.595 30.8512 40.1813 27.5ZM34.525 37.8125H35.475C36.9362 37.8125 38.125 39.0013 38.125 40.4625C38.125 41.7763 37.1775 42.8575 35.9375 43.0775V44.0613C35.9375 44.5788 35.5175 44.9988 35 44.9988C34.4825 44.9988 34.0625 44.5788 34.0625 44.0613V43.125H32.8125C32.295 43.125 31.875 42.705 31.875 42.1875C31.875 41.67 32.295 41.25 32.8125 41.25H35.475C35.9025 41.25 36.25 40.9025 36.25 40.475C36.25 40.035 35.9025 39.6875 35.475 39.6875H34.525C33.0638 39.6875 31.875 38.4987 31.875 37.0375C31.875 35.7238 32.8225 34.6425 34.0625 34.4225V33.4375C34.0625 32.92 34.4825 32.5 35 32.5C35.5175 32.5 35.9375 32.92 35.9375 33.4375V34.375H37.1875C37.705 34.375 38.125 34.795 38.125 35.3125C38.125 35.83 37.705 36.25 37.1875 36.25H34.525C34.0975 36.25 33.75 36.5975 33.75 37.025C33.75 37.465 34.0975 37.8125 34.525 37.8125Z" fill="#FFBB38"/>
</g>
<defs>
<clipPath id="clip0_152_663">
<rect width="30" height="30" fill="white" transform="translate(20 20)"/>
</clipPath>
</defs>
</svg>
