<svg width="173" height="70" viewBox="0 0 173 70" fill="none" xmlns="http://www.w3.org/2000/svg">
<path d="M92.1999 59.2727H94.082L94.0909 57.2397C97.8995 56.9645 100.083 54.8693 100.092 51.8952C100.083 48.7436 97.4822 47.3054 94.7479 46.6573L94.1619 46.5064L94.1974 41.4371C95.6179 41.6857 96.5323 42.538 96.6744 43.8164H99.8438C99.7905 40.9933 97.571 38.9336 94.2152 38.614L94.2241 36.5455H92.342L92.3331 38.614C89.0039 38.9513 86.6069 40.9933 86.6158 43.9318C86.6158 46.5419 88.4712 48.0423 91.4631 48.8146L92.2621 49.0188L92.2266 54.3899C90.6374 54.1413 89.4922 53.2358 89.3768 51.6289H86.1364C86.2607 54.9581 88.5511 56.9379 92.2088 57.2397L92.1999 59.2727ZM94.1087 54.3899L94.1442 49.516C95.7599 49.9865 96.7898 50.608 96.7987 51.8686C96.7898 53.1825 95.7333 54.1236 94.1087 54.3899ZM92.2798 46.027C91.0547 45.6364 89.9361 44.9883 89.9538 43.7276C89.9627 42.5824 90.8239 41.6946 92.3153 41.4371L92.2798 46.027ZM109.172 57.2486C113.016 57.2486 115.697 54.6385 115.697 51.0252C115.697 47.5273 113.265 45.006 109.962 45.006C108.489 45.006 107.184 45.592 106.509 46.391H106.402L106.926 41.5703H114.747V38.8182H104.201L103.251 48.1932L106.225 48.6815C106.837 48.0067 107.991 47.554 109.083 47.5629C111.081 47.5717 112.519 49.0455 112.51 51.1051C112.519 53.1381 111.116 54.5852 109.172 54.5852C107.53 54.5852 106.207 53.5465 106.092 52.055H102.896C102.984 55.0735 105.621 57.2486 109.172 57.2486ZM121.87 54.5142H119.029L118.967 55.5085C118.816 57.9144 118.185 60.3647 117.928 61.4389H120.094C120.52 60.3203 121.506 57.728 121.754 55.4908L121.87 54.5142ZM131.384 57.2486C135.309 57.2752 137.945 54.5763 137.936 50.9808C137.945 47.5451 135.495 45.0593 132.308 45.0593C130.355 45.0593 128.632 46.0092 127.762 47.5717H127.638C127.647 43.7454 129.05 41.4194 131.571 41.4194C133.133 41.4194 134.19 42.3249 134.527 43.7188H137.768C137.377 40.7802 135.007 38.5696 131.571 38.5696C127.203 38.5696 124.442 42.2095 124.442 48.424C124.433 55.0913 127.896 57.2308 131.384 57.2486ZM131.367 54.5852C129.422 54.5852 128.002 52.9783 127.993 51.0785C128.011 49.1697 129.485 47.5717 131.411 47.5717C133.338 47.5717 134.749 49.0987 134.74 51.0518C134.749 53.0405 133.293 54.5852 131.367 54.5852ZM147.658 57.3462C152.043 57.3551 154.662 53.8928 154.662 47.9268C154.662 41.9964 152.025 38.5696 147.658 38.5696C143.29 38.5696 140.662 41.9876 140.653 47.9268C140.653 53.8839 143.272 57.3462 147.658 57.3462ZM147.658 54.5675C145.394 54.5675 143.973 52.2947 143.982 47.9268C143.991 43.5945 145.403 41.3129 147.658 41.3129C149.921 41.3129 151.333 43.5945 151.342 47.9268C151.342 52.2947 149.93 54.5675 147.658 54.5675ZM164.332 57.3462C168.718 57.3551 171.337 53.8928 171.337 47.9268C171.337 41.9964 168.7 38.5696 164.332 38.5696C159.964 38.5696 157.337 41.9876 157.328 47.9268C157.328 53.8839 159.947 57.3462 164.332 57.3462ZM164.332 54.5675C162.069 54.5675 160.648 52.2947 160.657 47.9268C160.666 43.5945 162.077 41.3129 164.332 41.3129C166.596 41.3129 168.008 43.5945 168.017 47.9268C168.017 52.2947 166.605 54.5675 164.332 54.5675Z" fill="#232323"/>
<path d="M87.8182 10.3636H86.4091V22H87.8182V10.3636ZM91.8026 16.75C91.8026 15.2273 92.7457 14.3636 94.0298 14.3636C95.2741 14.3636 96.0298 15.1761 96.0298 16.5455V22H97.3707V16.4545C97.3707 14.2273 96.1832 13.1591 94.4162 13.1591C93.098 13.1591 92.2798 13.75 91.8707 14.6364H91.7571V13.2727H90.4616V22H91.8026V16.75ZM103.366 22.1818C105.298 22.1818 106.571 21 106.798 19.4545H105.457C105.207 20.4091 104.412 20.9773 103.366 20.9773C101.776 20.9773 100.753 19.6591 100.753 17.6364C100.753 15.6591 101.798 14.3636 103.366 14.3636C104.548 14.3636 105.253 15.0909 105.457 15.8864H106.798C106.571 14.25 105.185 13.1591 103.344 13.1591C100.98 13.1591 99.4119 15.0227 99.4119 17.6818C99.4119 20.2955 100.912 22.1818 103.366 22.1818ZM112.304 22.1818C114.668 22.1818 116.259 20.3864 116.259 17.6818C116.259 14.9545 114.668 13.1591 112.304 13.1591C109.94 13.1591 108.349 14.9545 108.349 17.6818C108.349 20.3864 109.94 22.1818 112.304 22.1818ZM112.304 20.9773C110.509 20.9773 109.69 19.4318 109.69 17.6818C109.69 15.9318 110.509 14.3636 112.304 14.3636C114.099 14.3636 114.918 15.9318 114.918 17.6818C114.918 19.4318 114.099 20.9773 112.304 20.9773ZM118.305 22H119.646V16.5455C119.646 15.267 120.578 14.3636 121.624 14.3636C122.641 14.3636 123.351 15.0284 123.351 16.0227V22H124.714V16.3182C124.714 15.1932 125.419 14.3636 126.646 14.3636C127.601 14.3636 128.419 14.8693 128.419 16.1591V22H129.76V16.1591C129.76 14.108 128.658 13.1591 127.101 13.1591C125.851 13.1591 124.936 13.733 124.487 14.6364H124.396C123.964 13.7045 123.203 13.1591 122.055 13.1591C120.919 13.1591 120.078 13.7045 119.714 14.6364H119.601V13.2727H118.305V22ZM135.871 22.1818C137.643 22.1818 138.939 21.2955 139.348 19.9773L138.053 19.6136C137.712 20.5227 136.922 20.9773 135.871 20.9773C134.297 20.9773 133.212 19.9602 133.149 18.0909H139.484V17.5227C139.484 14.2727 137.553 13.1591 135.734 13.1591C133.371 13.1591 131.803 15.0227 131.803 17.7045C131.803 20.3864 133.348 22.1818 135.871 22.1818ZM133.149 16.9318C133.24 15.5739 134.2 14.3636 135.734 14.3636C137.189 14.3636 138.121 15.4545 138.121 16.9318H133.149Z" fill="#718EBF"/>
<circle cx="35" cy="35" r="35" fill="#E7EDFF"/>
<path d="M37.6871 34.843C41.7793 34.843 45.1081 31.5137 45.1081 27.4215C45.1081 23.3293 41.7793 20 37.6871 20C33.5949 20 30.2656 23.3293 30.2656 27.4215C30.2656 31.5137 33.5949 34.843 37.6871 34.843ZM36.8082 23.0592V22.8576C36.8082 22.3719 37.2014 21.9787 37.6871 21.9787C38.1723 21.9787 38.566 22.3719 38.566 22.8576V23.0604C39.6119 23.2848 40.3989 24.2164 40.3989 25.3285C40.3989 25.8137 40.0051 26.2074 39.52 26.2074C39.0342 26.2074 38.641 25.8137 38.641 25.3285C38.641 25.0186 38.3885 24.766 38.0785 24.766H37.2905C36.9805 24.766 36.728 25.0186 36.728 25.3285C36.728 25.5061 36.8129 25.6748 36.9559 25.7803L37.6871 26.3217L39.4637 27.6365C40.0473 28.0684 40.3989 28.7592 40.4035 29.4858V29.494C40.4076 30.1139 40.1703 30.6987 39.7344 31.1399C39.411 31.4674 39.0067 31.6871 38.566 31.7797V31.9854C38.566 32.4711 38.1723 32.8643 37.6871 32.8643C37.2014 32.8643 36.8082 32.4711 36.8082 31.9854V31.7827C36.3793 31.6912 35.985 31.4803 35.6662 31.1651C35.225 30.7297 34.9801 30.1485 34.9766 29.5285C34.9736 29.0434 35.3645 28.6473 35.8496 28.6444H35.8555C36.3383 28.6444 36.7315 29.0346 36.7344 29.518C36.7356 29.8213 36.9796 30.077 37.2998 30.077C37.7855 30.0741 37.6046 30.0751 38.0867 30.0723C38.3987 30.0698 38.6481 29.8167 38.6457 29.5057V29.4975C38.6446 29.3217 38.5596 29.1541 38.4178 29.0492L37.6871 28.5084L35.91 27.1936C35.3217 26.7576 34.9701 26.0604 34.9701 25.3285C34.9701 24.2141 35.7594 23.2818 36.8082 23.0592Z" fill="#396AFF"/>
<path d="M25.6625 39.066C25.4372 38.6754 24.9368 38.5395 24.5438 38.7662L20.4095 41.1528C20.018 41.3793 19.8837 41.88 20.1097 42.272L24.3352 49.5905C24.5614 49.9819 25.0617 50.1163 25.4539 49.8903L29.5882 47.5032C29.9802 47.2771 30.114 46.7764 29.8879 46.3844L25.6625 39.066Z" fill="#396AFF"/>
<path d="M49.3515 37.6051C48.9536 37.0525 48.1837 36.9277 47.6318 37.3256C45.9571 38.532 42.7415 40.8488 42.486 41.0334C42.3683 41.1336 42.2446 41.2244 42.1157 41.3047C41.6101 41.6229 41.0235 41.7928 40.4112 41.7928H36.2012C35.7161 41.7928 35.3223 41.3996 35.3223 40.9139C35.3223 40.4276 35.7167 40.035 36.2012 40.035H40.7036C41.3651 40.035 41.8948 39.4842 41.8673 38.8215C41.8415 38.1928 41.3048 37.7053 40.6755 37.7053H37.2483C37.0163 37.4598 36.762 37.2348 36.4895 37.0338C35.5526 36.343 34.3948 35.9346 33.1415 35.9346C30.9131 35.9346 28.696 37.3385 27.7766 39.2123L31.3719 45.4391H38.1161C39.4403 45.4391 40.7446 45.1004 41.8925 44.4401C42.2903 44.2115 42.7163 43.9367 43.178 43.6051C45.1128 42.2153 49.0685 39.3277 49.0714 39.326C49.6245 38.9287 49.7499 38.1576 49.3515 37.6051Z" fill="#396AFF"/>
</svg>
