<svg width="178" height="70" viewBox="0 0 178 70" fill="none" xmlns="http://www.w3.org/2000/svg">
<path d="M92.1999 59.2727H94.082L94.0909 57.2397C97.8995 56.9645 100.083 54.8693 100.092 51.8952C100.083 48.7436 97.4822 47.3054 94.7479 46.6573L94.1619 46.5064L94.1974 41.4371C95.6179 41.6857 96.5323 42.538 96.6744 43.8164H99.8438C99.7905 40.9933 97.571 38.9336 94.2152 38.614L94.2241 36.5455H92.342L92.3331 38.614C89.0039 38.9513 86.6069 40.9933 86.6158 43.9318C86.6158 46.5419 88.4712 48.0423 91.4631 48.8146L92.2621 49.0188L92.2266 54.3899C90.6374 54.1413 89.4922 53.2358 89.3768 51.6289H86.1364C86.2607 54.9581 88.5511 56.9379 92.2088 57.2397L92.1999 59.2727ZM94.1087 54.3899L94.1442 49.516C95.7599 49.9865 96.7898 50.608 96.7987 51.8686C96.7898 53.1825 95.7333 54.1236 94.1087 54.3899ZM92.2798 46.027C91.0547 45.6364 89.9361 44.9883 89.9538 43.7276C89.9627 42.5824 90.8239 41.6946 92.3153 41.4371L92.2798 46.027ZM103.517 57H106.935L114.659 41.6325V38.8182H102.274V41.5703H111.25V41.6946L103.517 57ZM118.208 54.5142H115.367L115.305 55.5085C115.154 57.9144 114.523 60.3647 114.266 61.4389H116.432C116.858 60.3203 117.844 57.728 118.092 55.4908L118.208 54.5142ZM127.791 38.5696C123.849 38.543 121.23 41.2507 121.23 44.8018C121.239 48.2287 123.681 50.7056 126.868 50.7056C128.83 50.7056 130.534 49.7557 131.413 48.1932H131.538C131.529 52.0817 130.117 54.3988 127.605 54.3988C126.033 54.3988 124.977 53.4933 124.648 52.0462H121.408C121.781 55.0558 124.16 57.2486 127.605 57.2486C131.964 57.2486 134.743 53.6087 134.734 47.3498C134.725 40.7269 131.28 38.5874 127.791 38.5696ZM127.8 41.233C129.744 41.233 131.174 42.8487 131.174 44.7042C131.183 46.5863 129.682 48.2021 127.765 48.2021C125.829 48.2021 124.435 46.6751 124.426 44.7308C124.426 42.7777 125.874 41.233 127.8 41.233ZM137.69 57H150.154V54.2479H142.235V54.1236L145.369 50.9364C148.903 47.5451 149.879 45.8938 149.879 43.843C149.879 40.7979 147.402 38.5696 143.745 38.5696C140.14 38.5696 137.583 40.8068 137.583 44.2603H140.717C140.717 42.4048 141.889 41.2418 143.7 41.2418C145.431 41.2418 146.719 42.2983 146.719 44.0117C146.719 45.5298 145.795 46.6129 144.002 48.4329L137.69 54.6207V57ZM159.938 57.3462C164.324 57.3551 166.942 53.8928 166.942 47.9268C166.942 41.9964 164.306 38.5696 159.938 38.5696C155.57 38.5696 152.942 41.9876 152.933 47.9268C152.933 53.8839 155.552 57.3462 159.938 57.3462ZM159.938 54.5675C157.674 54.5675 156.254 52.2947 156.262 47.9268C156.271 43.5945 157.683 41.3129 159.938 41.3129C162.202 41.3129 163.613 43.5945 163.622 47.9268C163.622 52.2947 162.211 54.5675 159.938 54.5675Z" fill="#232323"/>
<path d="M85.7727 11.6136H89.4318V22H90.8409V11.6136H94.5V10.3636H85.7727V11.6136ZM98.7727 22.1818C101.136 22.1818 102.727 20.3864 102.727 17.6818C102.727 14.9545 101.136 13.1591 98.7727 13.1591C96.4091 13.1591 94.8182 14.9545 94.8182 17.6818C94.8182 20.3864 96.4091 22.1818 98.7727 22.1818ZM98.7727 20.9773C96.9773 20.9773 96.1591 19.4318 96.1591 17.6818C96.1591 15.9318 96.9773 14.3636 98.7727 14.3636C100.568 14.3636 101.386 15.9318 101.386 17.6818C101.386 19.4318 100.568 20.9773 98.7727 20.9773ZM108.57 13.2727H106.706V11.1818H105.365V13.2727H104.047V14.4091H105.365V19.8636C105.365 21.3864 106.592 22.1136 107.729 22.1136C108.229 22.1136 108.547 22.0227 108.729 21.9545L108.456 20.75C108.342 20.7727 108.161 20.8182 107.865 20.8182C107.274 20.8182 106.706 20.6364 106.706 19.5V14.4091H108.57V13.2727ZM113.155 22.2045C114.678 22.2045 115.473 21.3864 115.746 20.8182H115.814V22H117.155V16.25C117.155 13.4773 115.041 13.1591 113.928 13.1591C112.609 13.1591 111.109 13.6136 110.428 15.2045L111.7 15.6591C111.996 15.0227 112.695 14.3409 113.973 14.3409C115.206 14.3409 115.814 14.9943 115.814 16.1136V16.1591C115.814 16.8068 115.155 16.75 113.564 16.9545C111.945 17.1648 110.178 17.5227 110.178 19.5227C110.178 21.2273 111.496 22.2045 113.155 22.2045ZM113.359 21C112.291 21 111.518 20.5227 111.518 19.5909C111.518 18.5682 112.45 18.25 113.496 18.1136C114.064 18.0455 115.587 17.8864 115.814 17.6136V18.8409C115.814 19.9318 114.95 21 113.359 21ZM120.943 10.3636H119.602V22H120.943V10.3636ZM134.445 13.2727H135.808C135.746 11.517 134.126 10.2045 131.876 10.2045C129.649 10.2045 127.899 11.5 127.899 13.4545C127.899 15.0227 129.036 15.9545 130.854 16.4773L132.286 16.8864C133.513 17.2273 134.604 17.6591 134.604 18.8182C134.604 20.0909 133.376 20.9318 131.763 20.9318C130.376 20.9318 129.149 20.3182 129.036 19H127.581C127.717 20.9091 129.263 22.2045 131.763 22.2045C134.445 22.2045 135.967 20.7273 135.967 18.8409C135.967 16.6591 133.899 15.9545 132.695 15.6364L131.513 15.3182C130.649 15.0909 129.263 14.6364 129.263 13.3864C129.263 12.2727 130.286 11.4545 131.831 11.4545C133.24 11.4545 134.308 12.125 134.445 13.2727ZM140.67 22.2045C142.193 22.2045 142.989 21.3864 143.261 20.8182H143.33V22H144.67V16.25C144.67 13.4773 142.557 13.1591 141.443 13.1591C140.125 13.1591 138.625 13.6136 137.943 15.2045L139.216 15.6591C139.511 15.0227 140.21 14.3409 141.489 14.3409C142.722 14.3409 143.33 14.9943 143.33 16.1136V16.1591C143.33 16.8068 142.67 16.75 141.08 16.9545C139.46 17.1648 137.693 17.5227 137.693 19.5227C137.693 21.2273 139.011 22.2045 140.67 22.2045ZM140.875 21C139.807 21 139.034 20.5227 139.034 19.5909C139.034 18.5682 139.966 18.25 141.011 18.1136C141.58 18.0455 143.102 17.8864 143.33 17.6136V18.8409C143.33 19.9318 142.466 21 140.875 21ZM153.942 13.2727H152.487L150.078 20.2273H149.987L147.578 13.2727H146.124L149.351 22H150.714L153.942 13.2727ZM155.712 22H157.053V13.2727H155.712V22ZM156.393 11.8182C156.916 11.8182 157.348 11.4091 157.348 10.9091C157.348 10.4091 156.916 10 156.393 10C155.871 10 155.439 10.4091 155.439 10.9091C155.439 11.4091 155.871 11.8182 156.393 11.8182ZM160.849 16.75C160.849 15.2273 161.793 14.3636 163.077 14.3636C164.321 14.3636 165.077 15.1761 165.077 16.5455V22H166.418V16.4545C166.418 14.2273 165.23 13.1591 163.463 13.1591C162.145 13.1591 161.327 13.75 160.918 14.6364H160.804V13.2727H159.509V22H160.849V16.75ZM172.391 25.4545C174.482 25.4545 176.163 24.5 176.163 22.25V13.2727H174.868V14.6591H174.732C174.436 14.2045 173.891 13.1591 172.186 13.1591C169.982 13.1591 168.459 14.9091 168.459 17.5909C168.459 20.3182 170.05 21.8636 172.163 21.8636C173.868 21.8636 174.413 20.8636 174.709 20.3864H174.822V22.1591C174.822 23.6136 173.8 24.2727 172.391 24.2727C170.805 24.2727 170.249 23.4375 169.891 22.9545L168.822 23.7045C169.368 24.6193 170.442 25.4545 172.391 25.4545ZM172.345 20.6591C170.663 20.6591 169.8 19.3864 169.8 17.5682C169.8 15.7955 170.641 14.3636 172.345 14.3636C173.982 14.3636 174.845 15.6818 174.845 17.5682C174.845 19.5 173.959 20.6591 172.345 20.6591Z" fill="#718EBF"/>
<circle cx="35" cy="35" r="35" fill="#DCFAF8"/>
<g clip-path="url(#clip0_126_84)">
<path d="M47.9818 34.3653H46.1975C45.7913 33.2291 45.1368 32.2118 44.2991 31.3801L47.0509 30.1654C47.444 29.9918 47.6593 29.5581 47.5475 29.1433C47.2156 27.9118 46.0955 27.0059 44.7648 27.0059H42.4951C41.19 27.0059 40.088 27.8776 39.733 29.0729H37.3359C36.4356 32.3986 33.3946 34.8522 29.7913 34.8522C27.5917 34.8522 25.6018 33.9377 24.1802 32.469C23.7799 33.0403 23.4519 33.6664 23.2102 34.3342C22.4923 34.1771 21.9019 33.6092 21.7369 32.8697C21.6312 32.3959 21.1611 32.0972 20.6876 32.2033C20.2139 32.3091 19.9155 32.7788 20.0213 33.2526C20.2011 34.0581 20.6535 34.7894 21.2951 35.3118C21.7343 35.6693 22.2507 35.9182 22.7978 36.043C22.7552 36.378 22.7332 36.7195 22.7332 37.066V37.9182C22.7332 41.1482 24.6402 43.9303 27.3846 45.191V47.1279C27.3846 48.182 28.2392 49.0366 29.2933 49.0366C30.3475 49.0366 31.2021 48.182 31.2021 47.1279V45.9113H38.3524V47.1279C38.3524 48.182 39.207 49.0366 40.2612 49.0366C41.3154 49.0366 42.1699 48.182 42.1699 47.1279V45.1165C44.1766 44.1404 45.7132 42.3424 46.3467 40.1577H47.9816C49.0964 40.1577 50.0001 39.2498 50.0001 38.1298V36.3931C50.0002 35.2732 49.0965 34.3653 47.9818 34.3653ZM41.4964 34.8727C41.0128 34.8727 40.6207 34.4807 40.6207 33.997C40.6207 33.5133 41.0127 33.1213 41.4964 33.1213C41.9801 33.1213 42.3722 33.5133 42.3722 33.997C42.3722 34.4807 41.9801 34.8727 41.4964 34.8727Z" fill="#16DBCC"/>
<path d="M29.7912 20.9634C26.4507 20.9634 23.7332 23.6844 23.7332 27.0289C23.7332 30.3734 26.4508 33.0944 29.7912 33.0944C33.1317 33.0944 35.8493 30.3734 35.8493 27.0289C35.8493 23.6842 33.1316 20.9634 29.7912 20.9634ZM29.2287 26.1021H30.3538C31.623 26.1021 32.6554 27.1353 32.6554 28.4053C32.6554 29.5678 31.7901 30.5314 30.6702 30.6862V31.0163C30.6702 31.5017 30.2766 31.8953 29.7912 31.8953C29.3059 31.8953 28.9123 31.5017 28.9123 31.0163V30.7085H28.6881C27.7171 30.7085 26.927 29.9181 26.927 28.9465C26.927 28.4611 27.3205 28.0675 27.8059 28.0675C28.2913 28.0675 28.6848 28.4611 28.6848 28.9465L30.3538 28.9507C30.6536 28.9507 30.8976 28.706 30.8976 28.4053C30.8976 28.1046 30.6536 27.8599 30.3538 27.8599H29.2286C27.9595 27.8599 26.927 26.8267 26.927 25.5567C26.927 24.3941 27.7924 23.4305 28.9123 23.2757V23.0414C28.9123 22.556 29.3059 22.1625 29.7912 22.1625C30.2766 22.1625 30.6702 22.556 30.6702 23.0414V23.2534H30.8943C31.8654 23.2534 32.6554 24.0439 32.6554 25.0155C32.6554 25.5009 32.2619 25.8944 31.7765 25.8944C31.2911 25.8944 30.8976 25.5009 30.8976 25.0155C30.8976 25.0141 30.8975 25.0135 30.8975 25.0135L29.2287 25.0112C28.9288 25.0112 28.6849 25.2559 28.6849 25.5567C28.6849 25.8574 28.9288 26.1021 29.2287 26.1021Z" fill="#16DBCC"/>
</g>
<defs>
<clipPath id="clip0_126_84">
<rect width="30" height="30" fill="white" transform="translate(20 20)"/>
</clipPath>
</defs>
</svg>
